<svg width="14" height="11" viewBox="0 0 14 11" fill="none" xmlns="http://www.w3.org/2000/svg">
<path id="Vector" d="M6.25698 0.406134C6.13364 0.277444 5.98689 0.1753 5.82521 0.105594C5.66352 0.0358884 5.4901 0 5.31495 0C5.13979 0 4.96637 0.0358884 4.80469 0.105594C4.643 0.1753 4.49625 0.277444 4.37291 0.406134L0.392469 4.52516C0.268109 4.6528 0.169402 4.80466 0.102041 4.97197C0.0346809 5.13929 0 5.31875 0 5.5C0 5.68125 0.0346809 5.86071 0.102041 6.02803C0.169402 6.19534 0.268109 6.3472 0.392469 6.47484L4.37291 10.5939C4.49625 10.7226 4.643 10.8247 4.80469 10.8944C4.96637 10.9641 5.13979 11 5.31495 11C5.4901 11 5.66352 10.9641 5.82521 10.8944C5.98689 10.8247 6.13364 10.7226 6.25698 10.5939C6.38134 10.4662 6.48005 10.3144 6.54741 10.1471C6.61477 9.97974 6.64945 9.80028 6.64945 9.61903C6.64945 9.43778 6.61477 9.25832 6.54741 9.091C6.48005 8.92369 6.38134 8.77183 6.25698 8.64419L3.20531 5.5L6.25698 2.35581C6.38134 2.22817 6.48005 2.07631 6.54741 1.909C6.61477 1.74168 6.64945 1.56222 6.64945 1.38097C6.64945 1.19972 6.61477 1.02026 6.54741 0.852943C6.48005 0.685629 6.38134 0.533773 6.25698 0.406134ZM10.5028 5.5L13.6075 2.35581C13.8574 2.09727 13.9977 1.74661 13.9977 1.38097C13.9977 1.01534 13.8574 0.664677 13.6075 0.406134C13.3577 0.147591 13.0188 0.00234318 12.6655 0.00234318C12.3122 0.00234318 11.9733 0.147591 11.7235 0.406134L7.74301 4.52516C7.61865 4.6528 7.51995 4.80466 7.45259 4.97197C7.38523 5.13929 7.35055 5.31875 7.35055 5.5C7.35055 5.68125 7.38523 5.86071 7.45259 6.02803C7.51995 6.19534 7.61865 6.3472 7.74301 6.47484L11.7235 10.5939C11.8468 10.7226 11.9935 10.8247 12.1552 10.8944C12.3169 10.9641 12.4903 11 12.6655 11C12.8406 11 13.0141 10.9641 13.1758 10.8944C13.3374 10.8247 13.4842 10.7226 13.6075 10.5939C13.7319 10.4662 13.8306 10.3144 13.898 10.1471C13.9653 9.97974 14 9.80028 14 9.61903C14 9.43778 13.9653 9.25832 13.898 9.091C13.8306 8.92369 13.7319 8.77183 13.6075 8.64419L10.5028 5.5Z" fill="#424866"/>
</svg>
