<svg width="17" height="24" viewBox="0 0 17 24" fill="none" xmlns="http://www.w3.org/2000/svg">
<path id="Vector" d="M13.9093 1.98674C12.932 1.16161 11.7877 0.570859 10.5597 0.257585C9.33166 -0.0556899 8.05102 -0.0835827 6.81118 0.175941C5.16031 0.518272 3.64569 1.35632 2.45951 2.58374C1.27333 3.81117 0.469045 5.37265 0.148701 7.07008C-0.0852325 8.34279 -0.042723 9.65282 0.273198 10.9067C0.589118 12.1606 1.17067 13.3275 1.97637 14.3242C2.7241 15.1904 3.1527 16.2981 3.18773 17.4549V20.7275C3.18773 21.5954 3.52358 22.4278 4.12141 23.0415C4.71924 23.6552 5.53006 24 6.37552 24H10.6259C11.4714 24 12.2822 23.6552 12.88 23.0415C13.4778 22.4278 13.8137 21.5954 13.8137 20.7275V17.6622C13.8494 16.385 14.3064 15.1581 15.1101 14.1824C16.5181 12.3943 17.1819 10.1079 16.957 7.82018C16.7322 5.53246 15.637 3.42828 13.9093 1.96493V1.98674ZM11.6885 20.7275C11.6885 21.0168 11.5765 21.2942 11.3773 21.4988C11.178 21.7034 10.9077 21.8183 10.6259 21.8183H6.37552C6.0937 21.8183 5.82342 21.7034 5.62415 21.4988C5.42487 21.2942 5.31292 21.0168 5.31292 20.7275V19.6366H11.6885V20.7275ZM13.463 12.8297C12.3946 14.1307 11.7712 15.7554 11.6885 17.4549H9.56331V14.1824C9.56331 13.8931 9.45135 13.6156 9.25208 13.411C9.0528 13.2065 8.78253 13.0915 8.50071 13.0915C8.21889 13.0915 7.94862 13.2065 7.74934 13.411C7.55007 13.6156 7.43811 13.8931 7.43811 14.1824V17.4549H5.31292C5.28488 15.7839 4.68274 14.1767 3.61277 12.917C2.90682 12.0487 2.43211 11.0074 2.23491 9.89466C2.03771 8.78192 2.12476 7.6357 2.48757 6.56778C2.85038 5.49986 3.47657 4.54668 4.30507 3.80118C5.13358 3.05567 6.13613 2.54329 7.21497 2.314C8.14214 2.11802 9.10019 2.13645 10.0196 2.36796C10.9389 2.59947 11.7965 3.03824 12.5301 3.65241C13.2637 4.26659 13.8549 5.04076 14.2607 5.91872C14.6665 6.79667 14.8768 7.75638 14.8763 8.72817C14.8842 10.2225 14.3844 11.6729 13.463 12.8297Z" fill="#424866"/>
</svg>
