<svg width="21" height="21" viewBox="0 0 21 21" fill="none" xmlns="http://www.w3.org/2000/svg">
<path id="Vector" d="M20.1157 0.197281C19.3641 0.0690859 18.603 0.003099 17.8403 4.51686e-06C15.238 -0.00210789 12.69 0.736754 10.5 2.12852C8.30437 0.755028 5.75678 0.0343004 3.15974 0.0519194C2.39703 0.0550139 1.63591 0.121001 0.884258 0.249196C0.638052 0.291225 0.415091 0.418915 0.255526 0.609271C0.0959623 0.799627 0.0102811 1.04014 0.0139132 1.2875V13.7471C0.0116674 13.8996 0.0434066 14.0508 0.106872 14.1899C0.170338 14.3289 0.263971 14.4524 0.381108 14.5515C0.498245 14.6506 0.636008 14.723 0.784594 14.7634C0.933181 14.8038 1.08894 14.8113 1.24079 14.7854C2.74346 14.5278 4.28301 14.5705 5.76875 14.9111C7.25448 15.2517 8.65636 15.8832 9.89181 16.7685L10.0176 16.8412H10.133C10.2493 16.8892 10.374 16.9139 10.5 16.9139C10.626 16.9139 10.7507 16.8892 10.867 16.8412H10.9824L11.1082 16.7685C12.335 15.8634 13.7329 15.2114 15.2189 14.8512C16.7049 14.4909 18.2489 14.4297 19.7592 14.6712C19.9111 14.6971 20.0668 14.6896 20.2154 14.6492C20.364 14.6088 20.5018 14.5364 20.6189 14.4373C20.736 14.3382 20.8297 14.2147 20.8931 14.0756C20.9566 13.9366 20.9883 13.7854 20.9861 13.6329V1.17328C20.9752 0.93671 20.8829 0.710939 20.7246 0.533418C20.5663 0.355897 20.3515 0.237294 20.1157 0.197281ZM9.45139 13.9963C7.51134 12.9857 5.35187 12.4583 3.15974 12.4596C2.8137 12.4596 2.46766 12.4596 2.11113 12.4596V2.0766C2.46038 2.05667 2.81049 2.05667 3.15974 2.0766C5.39683 2.07415 7.58509 2.72418 9.45139 3.94554V13.9963ZM18.8889 12.5011C18.5323 12.5011 18.1863 12.5011 17.8403 12.5011C15.6481 12.4998 13.4887 13.0272 11.5486 14.0378V3.94554C13.4149 2.72418 15.6032 2.07415 17.8403 2.0766C18.1895 2.05667 18.5396 2.05667 18.8889 2.0766V12.5011ZM20.1157 16.8101C19.3641 16.6819 18.603 16.6159 17.8403 16.6128C15.238 16.6107 12.69 17.3495 10.5 18.7413C8.31 17.3495 5.762 16.6107 3.15974 16.6128C2.39703 16.6159 1.63591 16.6819 0.884258 16.8101C0.747758 16.8315 0.616887 16.8795 0.49917 16.9512C0.381453 17.0229 0.279212 17.1169 0.198328 17.2279C0.117444 17.3389 0.0595124 17.4646 0.0278636 17.5978C-0.00378513 17.731 -0.00852613 17.8691 0.0139132 18.0041C0.0672021 18.2737 0.226246 18.5115 0.456206 18.6652C0.686166 18.819 0.968293 18.8762 1.24079 18.8244C2.74346 18.5667 4.28301 18.6095 5.76875 18.9501C7.25448 19.2907 8.65636 19.9222 9.89181 20.8075C10.0694 20.9327 10.282 21 10.5 21C10.718 21 10.9306 20.9327 11.1082 20.8075C12.3436 19.9222 13.7455 19.2907 15.2313 18.9501C16.717 18.6095 18.2565 18.5667 19.7592 18.8244C20.0317 18.8762 20.3138 18.819 20.5438 18.6652C20.7738 18.5115 20.9328 18.2737 20.9861 18.0041C21.0085 17.8691 21.0038 17.731 20.9721 17.5978C20.9405 17.4646 20.8826 17.3389 20.8017 17.2279C20.7208 17.1169 20.6185 17.0229 20.5008 16.9512C20.3831 16.8795 20.2522 16.8315 20.1157 16.8101Z" fill="#424866"/>
</svg>
