<svg width="19" height="22" viewBox="0 0 19 22" fill="none" xmlns="http://www.w3.org/2000/svg">
<path id="Vector" d="M17.9444 6.61841L11.6111 0.839321C11.0306 0.298817 10.279 0 9.50003 0C8.72111 0 7.96951 0.298817 7.38894 0.839321L1.05565 6.61841C0.720373 6.93051 0.452825 7.31339 0.270818 7.74153C0.0888123 8.16967 -0.00347545 8.63327 0.00010006 9.10143V18.7039C0.00010006 19.5781 0.333728 20.4165 0.927589 21.0346C1.52145 21.6527 2.3269 22 3.16674 22H15.8333C16.6732 22 17.4786 21.6527 18.0725 21.0346C18.6663 20.4165 19 19.5781 19 18.7039V9.09045C19.002 8.62413 18.909 8.16265 18.7271 7.73652C18.5451 7.31038 18.2784 6.92929 17.9444 6.61841ZM11.6111 19.8026H7.38894V14.3092C7.38894 14.0178 7.50015 13.7384 7.6981 13.5323C7.89605 13.3263 8.16454 13.2105 8.44448 13.2105H10.5556C10.8355 13.2105 11.104 13.3263 11.302 13.5323C11.4999 13.7384 11.6111 14.0178 11.6111 14.3092V19.8026ZM16.8889 18.7039C16.8889 18.9953 16.7777 19.2748 16.5797 19.4808C16.3818 19.6869 16.1133 19.8026 15.8333 19.8026H13.7222V14.3092C13.7222 13.435 13.3886 12.5967 12.7947 11.9785C12.2009 11.3604 11.3954 11.0131 10.5556 11.0131H8.44448C7.60464 11.0131 6.79919 11.3604 6.20533 11.9785C5.61147 12.5967 5.27784 13.435 5.27784 14.3092V19.8026H3.16674C2.8868 19.8026 2.61831 19.6869 2.42036 19.4808C2.22241 19.2748 2.1112 18.9953 2.1112 18.7039V9.09045C2.11139 8.93445 2.14349 8.78028 2.20537 8.63821C2.26725 8.49613 2.35749 8.36939 2.47008 8.26643L8.80337 2.49834C8.996 2.3222 9.24363 2.22505 9.50003 2.22505C9.75643 2.22505 10.0041 2.3222 10.1967 2.49834L16.53 8.26643C16.6426 8.36939 16.7328 8.49613 16.7947 8.63821C16.8566 8.78028 16.8887 8.93445 16.8889 9.09045V18.7039Z" fill="white"/>
</svg>
