<svg width="20" height="20" viewBox="0 0 20 20" fill="none" xmlns="http://www.w3.org/2000/svg">
<path id="Vector" d="M10.5925 11L8.29195 13.29C8.1982 13.383 8.12378 13.4936 8.073 13.6155C8.02222 13.7373 7.99608 13.868 7.99608 14C7.99608 14.132 8.02222 14.2627 8.073 14.3846C8.12378 14.5065 8.1982 14.6171 8.29195 14.71C8.38493 14.8038 8.49556 14.8781 8.61744 14.9289C8.73933 14.9797 8.87007 15.0058 9.00211 15.0058C9.13416 15.0058 9.26489 14.9797 9.38678 14.9289C9.50867 14.8781 9.61929 14.8038 9.71228 14.71L13.7132 10.71C13.8043 10.6149 13.8757 10.5028 13.9233 10.38C14.0233 10.1366 14.0233 9.86351 13.9233 9.62005C13.8757 9.4973 13.8043 9.38516 13.7132 9.29005L9.71228 5.29007C9.61902 5.19683 9.5083 5.12287 9.38645 5.07241C9.2646 5.02195 9.134 4.99598 9.00211 4.99598C8.87022 4.99598 8.73962 5.02195 8.61777 5.07241C8.49592 5.12287 8.38521 5.19683 8.29195 5.29007C8.19869 5.38331 8.12471 5.494 8.07423 5.61582C8.02376 5.73764 7.99779 5.86821 7.99779 6.00007C7.99779 6.13193 8.02376 6.2625 8.07423 6.38432C8.12471 6.50614 8.19869 6.61683 8.29195 6.71007L10.5925 9.00005H1.00023C0.734956 9.00005 0.480542 9.10541 0.292962 9.29295C0.105382 9.48048 0 9.73483 0 10C0 10.2653 0.105382 10.5196 0.292962 10.7072C0.480542 10.8947 0.734956 11 1.00023 11H10.5925ZM10.0023 9.96932e-05C8.133 -0.00824405 6.29872 0.50731 4.70757 1.48828C3.11642 2.46926 1.83208 3.87639 1.00023 5.55007C0.880859 5.78877 0.861217 6.06509 0.945628 6.31827C1.03004 6.57144 1.21159 6.78072 1.45034 6.90006C1.68909 7.01941 1.96548 7.03905 2.21872 6.95466C2.47195 6.87027 2.68128 6.68876 2.80066 6.45007C3.433 5.17339 4.39486 4.0887 5.58686 3.30807C6.77886 2.52744 8.15774 2.07921 9.581 2.00968C11.0043 1.94016 12.4203 2.25186 13.6827 2.9126C14.9452 3.57333 16.0082 4.55911 16.762 5.76807C17.5159 6.97703 17.9331 8.3653 17.9706 9.78943C18.0081 11.2136 17.6646 12.6219 16.9755 13.8688C16.2864 15.1158 15.2767 16.1562 14.0508 16.8824C12.8249 17.6087 11.4273 17.9945 10.0023 18C8.51088 18.0065 7.04781 17.5924 5.78105 16.8053C4.51429 16.0182 3.49517 14.8899 2.84067 13.55C2.72129 13.3113 2.51196 13.1298 2.25873 13.0454C2.00549 12.961 1.7291 12.9807 1.49035 13.1C1.2516 13.2194 1.07005 13.4287 0.985637 13.6818C0.901226 13.935 0.920869 14.2113 1.04024 14.45C1.83326 16.0455 3.03823 17.4002 4.53053 18.3741C6.02283 19.3479 7.74827 19.9054 9.52836 19.989C11.3084 20.0726 13.0786 19.6792 14.6556 18.8495C16.2326 18.0198 17.5593 16.784 18.4984 15.2698C19.4375 13.7557 19.955 12.0182 19.9972 10.2371C20.0394 8.45592 19.6049 6.69586 18.7386 5.13891C17.8724 3.58195 16.6057 2.28465 15.0698 1.3812C13.5339 0.477742 11.7844 0.000936141 10.0023 9.96932e-05Z" fill="#424866"/>
</svg>
