<svg width="22" height="24" viewBox="0 0 22 24" fill="none" xmlns="http://www.w3.org/2000/svg">
<path id="Vector" d="M20.9978 9.828C20.1187 9.67182 19.2267 9.59549 18.3334 9.6C17.82 9.6 17.3189 9.6 16.8178 9.696C16.194 8.87866 15.3977 8.20325 14.4834 7.716C15.2687 6.8739 15.7047 5.77378 15.7056 4.632C15.7056 3.40352 15.2086 2.22535 14.3238 1.35668C13.4391 0.488013 12.2391 0 10.9879 0C9.73664 0 8.53666 0.488013 7.65191 1.35668C6.76716 2.22535 6.27012 3.40352 6.27012 4.632C6.27101 5.77378 6.707 6.8739 7.49233 7.716C6.58348 8.20579 5.78847 8.87601 5.1579 9.684C4.68124 9.6 4.18013 9.6 3.6668 9.6C2.77266 9.60341 1.88074 9.68777 1.00238 9.852C0.717653 9.90312 0.460646 10.0518 0.277115 10.2715C0.0935843 10.4913 -0.00455788 10.7679 0.000162689 11.052V20.952C-0.00012891 21.1283 0.0391454 21.3025 0.115193 21.4622C0.19124 21.6219 0.302192 21.7632 0.440159 21.876C0.577256 21.9895 0.738112 22.072 0.911315 22.1176C1.08452 22.1632 1.26582 22.1709 1.44237 22.14C2.17376 21.9836 2.91853 21.8952 3.6668 21.876C6.03434 21.8735 8.35052 22.5536 10.3279 23.832L10.4868 23.892C10.6489 23.9611 10.8234 23.9978 11.0001 24C11.1167 23.9986 11.2324 23.9783 11.3423 23.94H11.4279L11.5867 23.88C13.5829 22.5688 15.9317 21.8711 18.3334 21.876C19.0801 21.8794 19.8248 21.9517 20.5578 22.092C20.7343 22.1229 20.9156 22.1152 21.0888 22.0696C21.2621 22.024 21.4229 21.9415 21.56 21.828C21.698 21.7152 21.8089 21.5739 21.885 21.4142C21.961 21.2545 22.0003 21.0803 22 20.904V11.004C21.999 10.724 21.8982 10.4531 21.7152 10.2383C21.5321 10.0236 21.2783 9.8784 20.9978 9.828ZM11.0001 2.4C11.5726 2.4413 12.1081 2.69375 12.4988 3.10666C12.8896 3.51957 13.1068 4.06235 13.1068 4.626C13.1068 5.18965 12.8896 5.73243 12.4988 6.14534C12.1081 6.55825 11.5726 6.8107 11.0001 6.852C10.4275 6.8107 9.89211 6.55825 9.50133 6.14534C9.11054 5.73243 8.89334 5.18965 8.89334 4.626C8.89334 4.06235 9.11054 3.51957 9.50133 3.10666C9.89211 2.69375 10.4275 2.4413 11.0001 2.4ZM9.77787 20.796C7.86226 19.9266 5.77715 19.4762 3.6668 19.476C3.26347 19.476 2.86014 19.476 2.44459 19.536V12C3.46949 11.8874 4.50502 11.9076 5.52457 12.06H5.65901C7.1154 12.3228 8.51102 12.8433 9.77787 13.596V20.796ZM11.0001 11.52C10.4566 11.2122 9.89317 10.9396 9.31343 10.704H9.24009C8.83676 10.548 8.43343 10.392 8.01788 10.272C8.86648 9.60885 9.91559 9.24158 11.0001 9.228C12.0817 9.23473 13.1305 9.59346 13.9823 10.248C12.9447 10.566 11.9449 10.9925 11.0001 11.52ZM19.5556 19.536C17.0459 19.2884 14.5145 19.7027 12.2223 20.736V13.536C13.4914 12.8026 14.8879 12.3062 16.3412 12.072H16.5856C17.5682 11.9218 18.5666 11.8976 19.5556 12V19.536Z" fill="#424866"/>
</svg>
